<svg aria-hidden="true" style="width:0;height:0;position:absolute" xmlns="http://www.w3.org/2000/svg" overflow="hidden"><defs><symbol id="icon-milk-tank" viewBox="0 0 32 32"><path d="M20.243 14.757c-2.373-2.373-6.188-2.298-8.486 0a5.971 5.971 0 0 0-1.76 4.241c0 .821.165 1.603.464 2.315l-.015-.039c.241.59 1.169.215.926-.378a4.914 4.914 0 0 1-.374-1.895c0-1.461.627-2.775 1.627-3.688l.004-.003c.213.515.471.96.781 1.363l-.01-.014-.983 1.416c-1.025 1.439 1.297 3.436 2.48 1.688.979-1.41.685-.984.742-1.069a.347.347 0 0 1 .625.14v.002l.329 1.824c.276 1.827 3.331 1.359 2.953-.528l-.25-1.385a5.99 5.99 0 0 0 1.645-.677l-.027.015a4.99 4.99 0 0 1-2.285 5.171l-.021.012c-.583.356-.023 1.185.521.854 3.343-2.039 3.825-6.652 1.115-9.364zm-1.933 3.3a.498.498 0 0 0-.087.385v-.003c.278 1.828.497 2.044.217 2.282-.252.214-.787.216-.863-.235l-.329-1.824c-.203-1.194-1.781-1.499-2.437-.531-.66.879-.796 1.342-1.138 1.313-.317-.027-.661-.481-.438-.796l1.201-1.73a.5.5 0 0 0-.037-.617 4.891 4.891 0 0 1-.924-1.576l-.011-.034c2.61-1.534 5.998-.408 7.155 2.398-1.344.899-2.028.579-2.309.969z"/><path d="M12.581 21.227c-.162.248-1.581 2.456-1.581 3.607 0 2.884 4 2.894 4 0 0-1.151-1.419-3.359-1.581-3.607a.502.502 0 0 0-.837-.002l-.001.002zM12 24.833c0-.495.513-1.539 1-2.378.487.838 1 1.881 1 2.378 0 1.564-2 1.564-2 0z"/><path d="M25.93 8.134c-1.045-.433-1.722.267-3.168.772L21 5.382V3c.344-.031.669.096.894-.192a.497.497 0 0 0 .09-.433l.001.003a3.142 3.142 0 0 0-3.043-2.379h-5.885a3.137 3.137 0 0 0-3.038 2.357l-.005.022a.5.5 0 0 0 .485.621h.5v2.382L9.237 8.905c-1.444-.504-2.123-1.206-3.168-.772-1.512.627-1.381 2.806.194 3.25L8 11.877v16.122a.5.5 0 0 0-.5.5v3a.5.5 0 0 0 .5.5h16a.5.5 0 0 0 .5-.5v-3a.5.5 0 0 0-.5-.5V11.877c1.237-.454 2.31-.348 2.825-1.399a1.719 1.719 0 0 0-.883-2.34l-.011-.004zM13.062 1h5.88c.759 0 1.425.395 1.804.991l.005.009H11.25c.384-.605 1.051-1 1.81-1h.002zm-6.526 9.421a.722.722 0 0 1-.088-1.362l.005-.002c.487-.202.754.139 2.337.745l-.552 1.103zM23.5 31h-15v-2H18a.5.5 0 0 0 0-1H9V12h1.5a.5.5 0 0 0 0-1H9.309l2.5-5h.691a.5.5 0 0 0 0-1H12V3h8v2h-3.5a.5.5 0 0 0 0 1h3.691l2.5 5H14.5a.5.5 0 0 0 0 1H23v16h-1a.5.5 0 0 0 0 1h1.5zm1.963-20.578-1.701.484-.552-1.103c1.626-.622 1.853-.946 2.337-.745a.722.722 0 0 1-.08 1.363l-.005.001z"/><path d="M15 5.5a.5.5 0 1 1-1 0 .5.5 0 0 1 1 0zm-2 6a.5.5 0 1 1-1 0 .5.5 0 0 1 1 0zm7.5 17a.5.5 0 1 1-1 0 .5.5 0 0 1 1 0zm-3.5-4a.5.5 0 1 1-1 0 .5.5 0 0 1 1 0z"/></symbol><symbol id="icon-apple-juice" viewBox="0 0 32 32"><path d="M31.679 2.51a.534.534 0 0 0 0-.754l-1.6-1.6a.534.534 0 0 0-.754 0l-4.8 4.8c-.1.1-.156.236-.156.377V8H14.236a.534.534 0 0 0-.534.57l.445 6.363h-.407a3.204 3.204 0 0 0-2.316 1.013c-.252.26-.571.446-.922.537v-1.06a3.737 3.737 0 0 0 3.2-3.691v-1.067a.533.533 0 0 0-.533-.533 3.725 3.725 0 0 0-2.898 1.387 3.736 3.736 0 0 0-3.502-2.453.533.533 0 0 0-.533.533v1.067a3.738 3.738 0 0 0 3.2 3.691v2.116a2.011 2.011 0 0 1-.885-.514l-.132-.131a3.217 3.217 0 0 0-2.369-.949l-.544.012a5.372 5.372 0 0 0-3.693 1.578 5.624 5.624 0 0 0-1.261 6.027l2.742 7.007a3.904 3.904 0 0 0 3.658 2.496 2.648 2.648 0 0 0 1.886-.781 1.636 1.636 0 0 1 2.262 0 2.647 2.647 0 0 0 1.885.781 3.91 3.91 0 0 0 2.3-.747l.017.251c.02.28.253.497.533.496h12.8a.532.532 0 0 0 .533-.496l1.6-22.933a.532.532 0 0 0-.495-.569L30.234 8h-2.667V6.621l4.11-4.11zM10.502 13.867a2.67 2.67 0 0 1 2.133-2.613v.48a2.67 2.67 0 0 1-2.133 2.613v-.48zm-3.2-3.2v-.48A2.67 2.67 0 0 1 9.435 12.8v.48a2.67 2.67 0 0 1-2.133-2.613zm8.347 18.448a2.841 2.841 0 0 1-2.663 1.818 1.61 1.61 0 0 1-1.131-.468 2.667 2.667 0 0 0-3.771 0c-.3.301-.707.469-1.132.468a2.84 2.84 0 0 1-2.663-1.818l-2.742-7.009a4.559 4.559 0 0 1 1.021-4.884 4.305 4.305 0 0 1 2.963-1.266l.546-.01a2.24 2.24 0 0 1 1.591.64l.132.131a3.027 3.027 0 0 0 2.221.91 3.07 3.07 0 0 0 2.213-.981 2.103 2.103 0 0 1 1.508-.647h.679a4.148 4.148 0 0 1 2.951 1.222 4.56 4.56 0 0 1 1.022 4.884l-2.743 7.009zm8.72 1.818h-8.036l-.052-.739c.143-.218.264-.449.362-.69l2.742-7.009a5.626 5.626 0 0 0-1.261-6.027A5.19 5.19 0 0 0 15.221 15l-.042-.601h9.189v16.533zm0-17.6h-9.264l-.298-4.267h9.562v4.267zm2.133 17.6h-1.067V14.4h1.067v16.533zm0-17.6h-1.067V9.066h1.067v4.267zm1.636 17.6h-.569V14.4h1.723l-1.154 16.533zm1.526-21.866-.298 4.267h-1.797V9.067h2.095zm-3.006-3.044c-.1.1-.156.236-.156.377V8h-1.067V5.554l4.267-4.267.846.846-3.89 3.89z"/></symbol><symbol id="icon-ice-cream-logo" viewBox="0 0 32 32"><path d="M25.833 15.8h-.004a.625.625 0 1 1 .004 0zm-1.045-2.723a.62.62 0 0 1-.441-.183l-.002-.002a.625.625 0 1 1 .443.185z"/><path d="M29.982 16.961h-.384a8.313 8.313 0 0 0-4.355-8.417l.222-.072c1.799-.58 3.498-1.128 4.569-1.745a3.438 3.438 0 0 0 1.265-4.689c-.456-.792-1.196-1.361-2.084-1.599S27.402.32 26.61.775c-1.078.619-2.413 1.82-3.825 3.091l-.014.013A8.307 8.307 0 0 0 15.747 0c-4.544 0-8.248 3.67-8.303 8.201-3.023 1.243-5.157 4.219-5.157 7.685 0 .36.024.72.07 1.076h-.342a2.018 2.018 0 0 0-2.016 2.016c0 1.11.904 2.015 2.015 2.017h.591l3.044 10.553A.625.625 0 0 0 6.25 32h6.941a.625.625 0 0 0 0-1.25H6.72L5.032 24.9A3.577 3.577 0 0 0 8.726 21l7.331.005v3.627c0 1.124.915 2.039 2.039 2.039s2.039-.915 2.039-2.039v-3.727a.79.79 0 0 1 1.578 0v1.125c0 1.124.915 2.039 2.039 2.039s2.039-.915 2.039-2.039v-1.035h2.298l-1.98 6.862a3.692 3.692 0 0 0-6.18 2.893h-1.125a.625.625 0 0 0 0 1.25h6.941a.626.626 0 0 0 .601-.452l3.044-10.553h.591a2.018 2.018 0 0 0 0-4.034zM25.276 30.75h-4.094a2.441 2.441 0 0 1 2.431-2.614c.862 0 1.639.443 2.08 1.169zM23.622 4.796c1.362-1.226 2.649-2.383 3.613-2.937.503-.289 1.092-.365 1.657-.213s1.036.513 1.325 1.016c.6 1.044.24 2.381-.805 2.982-.957.551-2.595 1.08-4.329 1.639l-1.058.343a8.241 8.241 0 0 0-.651-2.608l.248-.223zM15.748 1.25c3.687 0 6.721 2.843 7.029 6.451a8.267 8.267 0 0 0-6.796 1.865 8.25 8.25 0 0 0-5.388-1.986c-.647 0-1.276.074-1.881.215.262-3.653 3.318-6.546 7.036-6.546zm-5.156 7.581c1.658 0 3.233.572 4.497 1.62a8.273 8.273 0 0 0-1.96 6.511H3.62a7.063 7.063 0 0 1 6.972-8.131zM5.171 23.653c-.174 0-.346-.019-.513-.057l-.75-2.6 3.562.003a2.326 2.326 0 0 1-2.299 2.654zm10.889-3.898-14.042-.01a.767.767 0 0 1-.001-1.533h13.457c.324 0 .587.263.587.587v.957zm8.482-.957v3.231a.79.79 0 0 1-1.578 0v-1.125c0-1.124-.915-2.039-2.039-2.039s-2.039.915-2.039 2.039v3.727a.79.79 0 0 1-1.578 0v-5.834a1.839 1.839 0 0 0-1.837-1.837h-1.082a7.063 7.063 0 0 1 6.972-8.131 7.063 7.063 0 0 1 6.972 8.131h-1.957a1.839 1.839 0 0 0-1.837 1.837zm5.44.947h-4.19v-.946c0-.324.263-.587.587-.587h3.603a.767.767 0 1 1 0 1.534z"/><path d="M9.069 26.395a2.723 2.723 0 0 0 2.721 2.719c1.499 0 2.719-1.22 2.719-2.719s-1.22-2.721-2.719-2.721a2.725 2.725 0 0 0-2.721 2.721zm4.19 0a1.47 1.47 0 0 1-2.94 0c0-.81.66-1.471 1.471-1.471.81 0 1.469.66 1.469 1.471zM5.804 15.671h.004c.345 0 .623-.28.623-.625a.627.627 0 0 0-1.252 0c0 .345.28.625.625.625zm2.39-2.386h.004c.345 0 .623-.28.623-.625a.627.627 0 0 0-1.252 0c0 .345.28.625.625.625zm-.296 1.832c0 .345.28.625.625.625h.004c.345 0 .623-.28.623-.625a.627.627 0 0 0-1.252 0zm6.416-9.557h.004c.345 0 .623-.28.623-.625a.627.627 0 0 0-1.252 0c0 .345.28.625.625.625zm3.565.374h.004c.345 0 .623-.28.623-.625a.627.627 0 0 0-1.252 0c0 .345.28.625.625.625zm-1.547-1.851h.004c.345 0 .623-.28.623-.625a.627.627 0 0 0-1.252 0c0 .345.28.625.625.625zm5.21 8.502a.625.625 0 0 0-.625.625v1.265a.66.66 0 1 1-1.32 0V13.21a.625.625 0 0 0-1.25 0v1.265c0 1.054.857 1.911 1.909 1.911s1.911-.857 1.911-1.911V13.21a.625.625 0 0 0-.625-.625zM15.999 30.75a.625.625 0 0 0 0 1.25h.004c.345 0 .623-.28.623-.625s-.282-.625-.627-.625z"/></symbol><symbol id="icon-ice-cream" viewBox="0 0 32 32"><path d="M24.692 12.537c0-2.364-1.64-4.35-3.842-4.885.21-.604.317-1.237.317-1.889a5.74 5.74 0 0 0-.356-1.999A5.812 5.812 0 0 0 18.545.93a.47.47 0 0 0-.512.786 4.873 4.873 0 0 1 1.61 1.742h-1.871c-.618 0-1.12.503-1.12 1.12v.217a.274.274 0 0 1-.548 0V3.68a1.17 1.17 0 0 0-2.338 0v2.522a.183.183 0 0 1-.366 0V4.578c0-.618-.503-1.12-1.12-1.12h-1.115a4.85 4.85 0 0 1 5.198-2.426.469.469 0 0 0 .186-.918A5.802 5.802 0 0 0 15.405 0a5.785 5.785 0 0 0-5.406 3.764 5.787 5.787 0 0 0 .107 4.265 5.033 5.033 0 0 0-2.508 2.794.47.47 0 0 0 .882.32 4.103 4.103 0 0 1 3.846-2.695c1.185 0 2.318.523 3.09 1.412a5 5 0 0 0 .001 5.355 4.107 4.107 0 0 1-3.091 1.413 4.097 4.097 0 0 1-4.08-3.814.469.469 0 0 0-.936.062 5.038 5.038 0 0 0 3.16 4.332l.008.03 4.92 14.446a.47.47 0 0 0 .888 0l4.077-11.973a1.487 1.487 0 0 0 2.901-.45v-3.212a5.049 5.049 0 0 0 1.431-3.511zM12.324 7.51c-.461 0-.912.064-1.342.184a4.838 4.838 0 0 1-.205-3.298h1.503c.101 0 .183.082.183.183v1.624c0 .618.503 1.12 1.12 1.12s1.12-.503 1.12-1.12V3.681a.231.231 0 0 1 .462 0v1.115c0 .668.544 1.212 1.212 1.212s1.212-.544 1.212-1.212v-.217c0-.101.082-.183.183-.183h2.26c.13.441.197.899.197 1.367 0 .608-.111 1.196-.328 1.753a5.016 5.016 0 0 0-3.905 1.589 5.05 5.05 0 0 0-3.673-1.595zm3.672 8.459c.26.28.554.531.877.747v.269c0 .891.725 1.616 1.616 1.616a1.62 1.62 0 0 0 1.514-1.049l.105-.008-.676 1.984-5.344-2.287a5.066 5.066 0 0 0 1.908-1.272zm-3.672 1.595.129-.002 6.675 2.857-.669 1.965-3.17-1.335a.47.47 0 0 0-.364.864l3.231 1.36-.684 2.009-3.813-1.605-.913-2.681.357.15a.466.466 0 0 0 .614-.25.47.47 0 0 0-.25-.614l-1.125-.474-.784-2.304c.25.039.506.059.766.059zm4.162 10.616-1.508-.635-.913-2.681 3.105 1.308-.684 2.009zm-.646 1.897-.458-1.345.801.337-.343 1.007zm6.953-17.244a.469.469 0 0 0-.469.469v5.958a.549.549 0 0 1-1.096 0v-2.3a1.031 1.031 0 0 0-2.06 0v.024c0 .374-.305.679-.679.679s-.679-.305-.679-.679v-2.2a.469.469 0 0 0-.938 0v.737a4.108 4.108 0 0 1-1.297-2.985 4.094 4.094 0 0 1 4.089-4.089 4.095 4.095 0 0 1 3.596 6.041v-1.187a.469.469 0 0 0-.469-.469z"/><path d="M21.243 10.546h-.085a.469.469 0 0 0 0 .938h.085a.469.469 0 0 0 0-.938zm.937 1.336h-.085a.469.469 0 0 0 0 .938h.085a.469.469 0 0 0 0-.938zm-11.175 3.299a.469.469 0 0 0 0-.938h-.085a.469.469 0 0 0 0 .938h.085z"/></symbol></defs></svg>